name C:/MyDriveSym/Projects/mobilecap/Data\Session20210816_0002\mocap\ForceDataProcessed\walking1_forces.mot
datacolumns 19
datarows 14
range 0.98950000 0.99600000
endheader 
time	R_ground_force_vx	R_ground_force_vy	R_ground_force_vz	R_ground_force_px	R_ground_force_py	R_ground_force_pz	R_ground_torque_x	R_ground_torque_y	R_ground_torque_z	L_ground_force_vx	L_ground_force_vy	L_ground_force_vz	L_ground_force_px	L_ground_force_py	L_ground_force_pz	L_ground_torque_x	L_ground_torque_y	L_ground_torque_z	
          0.98950000	          0.00000000	          0.00000000	          0.00000000	          1.22238000	          0.00000000	         -0.15718800	          0.00000000	          0.00000000	          0.00000000	          5.46238900	        595.64339200	         19.40664100	          0.99336200	          0.00600000	         -0.26362800	          0.00000000	          3.68720200	          0.00000000	
          0.99000000	          0.00000000	          0.00000000	          0.00000000	          1.22399600	          0.00000000	         -0.15708700	          0.00000000	          0.00000000	          0.00000000	          5.72697100	        596.13540200	         19.49265900	          0.99349200	          0.00600000	         -0.26361800	          0.00000000	          3.69870200	          0.00000000	
          0.99050000	          0.00000000	          0.00000000	          0.00000000	          1.22561300	          0.00000000	         -0.15698600	          0.00000000	          0.00000000	          0.00000000	          5.99290000	        596.62924500	         19.57895800	          0.99362000	          0.00600000	         -0.26360900	          0.00000000	          3.71015000	          0.00000000	
          0.99100000	          0.00000000	          0.00000000	          0.00000000	          1.22722900	          0.00000000	         -0.15688500	          0.00000000	          0.00000000	          0.00000000	          6.26017400	        597.12487700	         19.66552700	          0.99374900	          0.00600000	         -0.26360000	          0.00000000	          3.72154500	          0.00000000	
          0.99150000	          0.00000000	          0.00000000	          0.00000000	          1.22884500	          0.00000000	         -0.15678400	          0.00000000	          0.00000000	          0.00000000	          6.52879000	        597.62225300	         19.75235500	          0.99387600	          0.00600000	         -0.26359100	          0.00000000	          3.73288600	          0.00000000	
          0.99200000	          0.00000000	          0.00000000	          0.00000000	          1.23046200	          0.00000000	         -0.15668200	          0.00000000	          0.00000000	          0.00000000	          6.79874500	        598.12132900	         19.83943100	          0.99400400	          0.00600000	         -0.26358200	          0.00000000	          3.74417400	          0.00000000	
          0.99250000	          0.00000000	          0.00000000	          0.00000000	          1.23207800	          0.00000000	         -0.15658100	          0.00000000	          0.00000000	          0.00000000	          7.07003800	        598.62205900	         19.92674400	          0.99413000	          0.00600000	         -0.26357400	          0.00000000	          3.75540700	          0.00000000	
          0.99300000	          0.00000000	          0.00000000	          0.00000000	          1.23369400	          0.00000000	         -0.15648000	          0.00000000	          0.00000000	          0.00000000	          7.34266400	        599.12439700	         20.01428100	          0.99425600	          0.00600000	         -0.26356500	          0.00000000	          3.76658500	          0.00000000	
          0.99350000	          0.00000000	          0.00000000	          0.00000000	          1.23531100	          0.00000000	         -0.15637900	          0.00000000	          0.00000000	          0.00000000	          7.61662200	        599.62829600	         20.10203200	          0.99438100	          0.00600000	         -0.26355700	          0.00000000	          3.77770800	          0.00000000	
          0.99400000	          0.00000000	          0.00000000	          0.00000000	          1.23692700	          0.00000000	         -0.15627800	          0.00000000	          0.00000000	          0.00000000	          7.89190800	        600.13370800	         20.18998500	          0.99450600	          0.00600000	         -0.26354900	          0.00000000	          3.78877400	          0.00000000	
          0.99450000	          0.00000000	          0.00000000	          0.00000000	          1.23854300	          0.00000000	         -0.15617700	          0.00000000	          0.00000000	          0.00000000	          8.16852000	        600.64058600	         20.27812900	          0.99463000	          0.00600000	         -0.26354000	          0.00000000	          3.79978500	          0.00000000	
          0.99500000	          0.00000000	          0.00000000	          0.00000000	          1.24016000	          0.00000000	         -0.15607600	          0.00000000	          0.00000000	          0.00000000	          8.44645400	        601.14888000	         20.36645000	          0.99475300	          0.00600000	         -0.26353200	          0.00000000	          3.81073900	          0.00000000	
          0.99550000	          0.00000000	          0.00000000	          0.00000000	          1.24177600	          0.00000000	         -0.15597500	          0.00000000	          0.00000000	          0.00000000	          8.72570700	        601.65854200	         20.45493800	          0.99487600	          0.00600000	         -0.26352500	          0.00000000	          3.82163600	          0.00000000	
          0.99600000	          0.00000000	          0.00000000	          0.00000000	          1.24339200	          0.00000000	         -0.15587400	          0.00000000	          0.00000000	          0.00000000	          9.00627600	        602.16952200	         20.54358000	          0.99499800	          0.00600000	         -0.26351700	          0.00000000	          3.83247600	          0.00000000	
